<svg xmlns="http://www.w3.org/2000/svg" xmlns:xlink="http://www.w3.org/1999/xlink" viewBox="0 0 604.75 509.27"><defs><style>.cls-1,.cls-13{fill:none;}.cls-2{clip-path:url(#clip-path);}.cls-3{fill:url(#linear-gradient);}.cls-4{clip-path:url(#clip-path-2);}.cls-5{fill:url(#linear-gradient-2);}.cls-6{clip-path:url(#clip-path-3);}.cls-7{fill:url(#linear-gradient-3);}.cls-8{clip-path:url(#clip-path-4);}.cls-9{fill:url(#linear-gradient-4);}.cls-10{clip-path:url(#clip-path-5);}.cls-11{fill:url(#linear-gradient-5);}.cls-12{fill:#1a1a1a;}.cls-13{stroke:#fff;stroke-miterlimit:10;}.cls-14{fill:#db200b;}</style><clipPath id="clip-path" transform="translate(102.46 52.38)"><path class="cls-1" d="M317.83,93.64l-.42.38h0a35.46,35.46,0,0,0-4.21.79h0a20.62,20.62,0,0,1,4.51-.08h0c.58-.15,1.16-.32,1.72-.51h0a.15.15,0,0,0,.11-.18.17.17,0,0,0-.11-.11h0a11,11,0,0,0-1.15,0h0a.24.24,0,0,0-.08-.34.23.23,0,0,0-.16,0h0a.26.26,0,0,0-.17.07"/></clipPath><linearGradient id="linear-gradient" x1="-347.08" y1="246.31" x2="-346.08" y2="246.31" gradientTransform="translate(18582.42 25764.49) rotate(90) scale(74.16)" gradientUnits="userSpaceOnUse"><stop offset="0" stop-color="#fff"/><stop offset="0.87" stop-color="#1f1f1f"/><stop offset="1" stop-color="#1f1f1f"/></linearGradient><clipPath id="clip-path-2" transform="translate(102.46 52.38)"><path class="cls-1" d="M241.46.25v1h0c-4.94,10.5-7.58,22-9.32,33.4h0c-.89,5.83-1.49,11.7-2,17.58h0c-.27,3.14-.5,6.3-.72,9.45h0V62h0q-1.08-4.86-2.25-9.71h0c-1.38-5.64-2.52-11.58-4.71-17h0a2.66,2.66,0,0,1,.07-.37h0c.07-.35-.45-.64-.63-.26h0c-1.88,4-2.5,8.69-2.79,13.06h0a48.1,48.1,0,0,0,0,7h0c0,.61.41,2.22.6,3.8h0A176.25,176.25,0,0,0,210.87,32h0a113.75,113.75,0,0,0-9.54-18.48h0a1.77,1.77,0,0,0,0-.46h0c0-.67-.27-1.2-.6-1.2h0a.43.43,0,0,0-.36.25h0v-.17h0c0-.15-.25-.16-.25,0h0v1h0V13h0v.3h0c.45,12.83.74,25.62,2.29,38.41h0c.77,6.33,1.79,12.63,3.13,18.86h0c.24,1.08.48,2.16.74,3.23h0c-2.36-4.91-4.79-9.78-7.43-14.54h0a152.38,152.38,0,0,0-10.71-16.9h0c-1.92-2.6-4-5.1-6.09-7.54h0a39.94,39.94,0,0,0-6.49-6.57h0a2.45,2.45,0,0,0-.08-.37h0c0-.17-.28-.09-.26.07h0v.15h0a.11.11,0,0,0-.05.14h0l.09.12h0A256.66,256.66,0,0,0,184.79,68h0C187,74.55,189.4,81,192,87.21h0c1.09,2.61,2.23,5.2,3.4,7.77h0l-.09-.11h0a149.17,149.17,0,0,0-12.9-14.39h0a146.83,146.83,0,0,0-14.12-12.13h0c-4.59-3.49-9.61-7.25-14.93-9.59h0l-.33-.62h0c-.06-.11-.21,0-.16.1h0l.18.38h0l-.42-.17h0c-.12-.06-.17.13-.08.2h0c.26.2.52.4.79.59h0a190.91,190.91,0,0,0,25,39.75h0a118.35,118.35,0,0,0-14.69-10.24h0A111.23,111.23,0,0,0,147.48,81h0a78.65,78.65,0,0,0-16.74-4.78h0l-1-.82h0c-.13-.09-.31.08-.18.18h0l.66.56h-.34a.26.26,0,0,0-.07.5h0l1.46.44h0C138.84,83.52,146.1,90.34,153.5,97h0q5.91,5.31,11.79,10.63h0c1.9,1.72,3.82,3.43,5.72,5.14h0c.94.85,1.88,1.84,2.9,2.72h0l28.16,7.75,16.43,12.5.62-7.45s-17-6.91-23.6-58.19h0s19,15.74,21.63,24.1h0l7-4.39L236,104s2.52-31.71,11.87-49.15h0l.33-.76h0c.08-.18-.18-.34-.27-.16h0c-.26.52-.5,1-.75,1.57h0a1,1,0,0,0-.36.75h0c-1.08,2.34-2.1,4.69-3,7.07h0l.12-1.13h0c.35-2.8.61-5.62.8-8.44h0c.41-6.06.46-12.12.3-18.19h0a308.48,308.48,0,0,0-3-34.74h0c.06-.14.11-.29.16-.44h0c0-.13-.14-.23-.24-.16h0a.24.24,0,0,0-.25-.2h0a.27.27,0,0,0-.29.25v0"/></clipPath><linearGradient id="linear-gradient-2" x1="-347.06" y1="248.03" x2="-346.06" y2="248.03" gradientTransform="translate(30855.31 43005.7) rotate(90) scale(123.79)" xlink:href="#linear-gradient"/><clipPath id="clip-path-3" transform="translate(102.46 52.38)"><path class="cls-1" d="M173.9,115.41q-1.2-.19-2.4-.33h0c-.74-.08-1.48-.14-2.23-.17h0Z"/></clipPath><linearGradient id="linear-gradient-3" x1="-347.08" y1="247.78" x2="-346.08" y2="247.78" gradientTransform="translate(18441.19 25772.33) rotate(90) scale(74.16)" xlink:href="#linear-gradient"/><clipPath id="clip-path-4" transform="translate(102.46 52.38)"><path class="cls-1" d="M290.94,15.63c-.11.12-.22.23-.32.35h0a.15.15,0,0,0-.1.09h0c-11.46,12.29-18.68,28-24.34,43.62h0c-.21.58-.42,1.16-.62,1.75h0a4.19,4.19,0,0,1,.1-.71h0q1-6.39,1.44-12.84h0c.6-8.43.93-17.24-.28-25.63h0c.09-.23.18-.46.28-.69h0c0-.13-.17-.22-.23-.1h0c-.08.16-.15.33-.23.49h0a.13.13,0,0,0-.1.11h0v.09h0c-3.54,7.3-6.78,14.82-9.62,22.37h0A193.06,193.06,0,0,0,250.39,64h0c-.5-3.24-1.06-6.46-1.73-9.65h0a.32.32,0,0,0-.62.08h0s7.77,30,1.57,55.9h0l8.83-5L284.8,75.56c.1-.1.19-.21.29-.32h0c.13-.14-.08-.35-.21-.21h0c-7.15,7.41-14.11,14.85-20.6,22.8h0c.53-1.29,1-2.59,1.56-3.86h0c1.54-3.69,3-7.4,4.54-11.1h0c2.94-7.18,5.8-14.38,8.46-21.66h0c2.66-7.29,5.1-14.67,7.16-22.15h0c1.07-3.88,2-7.78,2.89-11.7h0c.77-3.51,1.92-7.33,1.93-10.94h0l.41-.5h0a.21.21,0,0,0,0-.3.19.19,0,0,0-.13,0h0a.2.2,0,0,0-.14.06"/></clipPath><linearGradient id="linear-gradient-4" x1="-347.91" y1="248.65" x2="-346.91" y2="248.65" gradientTransform="translate(34094.81 -24152.35) scale(97.39)" xlink:href="#linear-gradient"/><clipPath id="clip-path-5" transform="translate(102.46 52.38)"><path class="cls-1" d="M321.36,53.37c-.12.07-.23.15-.35.21h0a.3.3,0,0,0-.21.13h0c-8.31,4.89-15.45,11.09-22.32,17.83h0c-3.59,3.52-7,7.21-10.32,11h0c-1.71,1.94-3.41,3.88-5.09,5.84h0c-.4.47-.85,1-1.3,1.44h0c.32-1,.63-1.93.91-2.9h0c.54-1.93,1-3.89,1.36-5.86h0a21.48,21.48,0,0,0,.76-5.47h0s-5.8,20.86-13.93,37.33h0s16.49-10.11,31.23-15.3h0a106.29,106.29,0,0,0-14,5.47h0c1.71-1.46,3.34-3,4.92-4.5h0a108.81,108.81,0,0,0,11.64-13h0a112.57,112.57,0,0,0,9.69-15h0q2.14-4,4-8.15h0a46.24,46.24,0,0,0,3.13-8.36h0a.38.38,0,0,0-.09-.32h0l.17-.12h0a.13.13,0,0,0,0-.18.13.13,0,0,0-.1-.06h-.07"/></clipPath><linearGradient id="linear-gradient-5" x1="-347.08" y1="247.45" x2="-346.08" y2="247.45" gradientTransform="matrix(0, 74.16, -74.16, 0, 18564.89, 25767.75)" xlink:href="#linear-gradient"/></defs><g id="Layer_2" data-name="Layer 2"><g id="Layer_1-2" data-name="Layer 1"><g id="Layer_2-2" data-name="Layer 2"><g id="Layer_1-2-2" data-name="Layer 1-2"><g class="cls-2"><rect class="cls-3" x="313.19" y="92.86" width="6.42" height="1.44" transform="translate(99.74 62.15) rotate(-1.76)"/></g><g class="cls-4"><rect class="cls-5" x="-33.51" y="16.57" width="371.36" height="371.36" transform="translate(20.26 159.07) rotate(-30.86)"/></g><g class="cls-6"><rect class="cls-7" x="-45.07" y="117.54" width="222.49" height="222.49" transform="translate(95.47 54.52) rotate(-1.76)"/></g><g class="cls-8"><rect class="cls-9" x="217.81" y="25.72" width="104.09" height="75.64" transform="translate(212.43 342.41) rotate(-68.03)"/></g><g class="cls-10"><rect class="cls-11" x="102.59" y="54.55" width="222.49" height="222.49" transform="translate(97.47 59.03) rotate(-1.76)"/></g><path class="cls-12" d="M321.36,53.37c-.12.07-.23.15-.35.21a.3.3,0,0,0-.21.13c-8.31,4.89-15.45,11.09-22.32,17.83-3.59,3.52-7,7.21-10.32,11-1.71,1.94-3.41,3.88-5.09,5.84-.4.48-.85,1-1.3,1.44.32-1,.63-1.93.91-2.9.55-1.93,1-3.89,1.36-5.86a20.63,20.63,0,0,0,.76-5.47h0c.1-.1.19-.21.29-.32s-.08-.35-.21-.21c-7.15,7.41-14.11,14.85-20.6,22.8.53-1.29,1-2.59,1.56-3.86,1.54-3.69,3-7.4,4.54-11.1,2.94-7.18,5.8-14.38,8.46-21.66s5.1-14.67,7.16-22.15c1.07-3.88,2-7.78,2.89-11.7.77-3.51,1.92-7.33,1.93-10.94l.41-.5c.17-.2-.11-.48-.29-.29s-.22.23-.32.35a.12.12,0,0,0-.1.09h0c-11.46,12.29-18.68,28-24.34,43.62-.21.58-.42,1.16-.62,1.75a4.19,4.19,0,0,1,.1-.71q1-6.39,1.44-12.84c.6-8.43.93-17.25-.28-25.63.09-.23.18-.46.28-.69s-.17-.22-.23-.1-.15.33-.23.49a.13.13,0,0,0-.1.11v.09C263,29.46,259.76,37,256.92,44.52A193.23,193.23,0,0,0,250.39,64c-.5-3.24-1.06-6.46-1.73-9.65a.32.32,0,0,0-.41-.19.31.31,0,0,0-.21.28c.28,4.52.85,9,1.43,13.53-.09.43-.17.86-.25,1.29a.83.83,0,0,0,.55,1c.28,2.16.55,4.33.79,6.49a64.6,64.6,0,0,1-1.23,22.13c-1.92,8.3-4.23,16.48-6.67,24.62.11-.39.22-.78.31-1.17,1.64-6.63,3-13.33,4.3-20a105.65,105.65,0,0,0,2.38-19.24c.07-6.42-1.1-13.08-2.15-19.4,0-.16-.27-.11-.27,0-.11,6.47,1.23,12.87.92,19.36a135.47,135.47,0,0,1-3,20.64q-.59,2.81-1.22,5.61c.52-3.33,1-6.67,1.37-10a125.91,125.91,0,0,0,.26-30.18c0-.18-.29-.19-.28,0a169.28,169.28,0,0,1-1.64,30.35c-.31,2.22-.66,4.43-1,6.63.14-1.52.27-3,.4-4.57a235.41,235.41,0,0,0,.67-23.76c0-.16-.22-.15-.24,0q-1,11.69-2.06,23.36-.49,5.73-1.11,11.44c-.05.48-.12,1-.19,1.45v-.61c-.1-2.74-.15-5.48-.12-8.22.07-5.34.48-10.66.7-16a.15.15,0,0,0-.3,0,90.58,90.58,0,0,0-1.83,16c-.06,1.51-.09,3-.1,4.55-.26-.82-.54-1.64-.85-2.45.13-3.79,0-7.61.28-11.4a143.49,143.49,0,0,1,1.93-14.61q1.14-6,2.84-12a10.15,10.15,0,0,0,.67-2.22,110.61,110.61,0,0,1,4.87-12.93c.08-.18-.18-.34-.27-.16-1.51,3.1-2.89,6.22-4.15,9.39l.12-1.13c.35-2.8.61-5.62.8-8.44.41-6.06.46-12.12.3-18.19A309.15,309.15,0,0,0,242.08.81c.06-.15.11-.3.16-.45S242.1.13,242,.2h0c0-.31-.55-.24-.54.07s0,.65,0,1c-4.94,10.5-7.58,22-9.32,33.4-.89,5.83-1.49,11.7-2,17.58-.27,3.15-.5,6.3-.72,9.45v.36q-1.08-4.86-2.25-9.71c-1.38-5.65-2.52-11.58-4.71-17a2.66,2.66,0,0,1,.07-.37c.07-.35-.45-.64-.63-.26-1.88,4-2.5,8.69-2.79,13.06a48.1,48.1,0,0,0,0,7c0,.61.41,2.22.6,3.8A176.49,176.49,0,0,0,210.87,32,111.55,111.55,0,0,0,201,13a.11.11,0,0,0-.16,0,.12.12,0,0,0,0,.1c2.74,5.56,5.65,11,8.08,16.73a159.44,159.44,0,0,1,6.29,17.64c1.4,4.81,2.82,9.76,4,14.77h0a.1.1,0,0,0-.1.1.09.09,0,0,0,.1.1h.05c1.75,7.61,2.91,15.38,2.48,23,0,1-.13,2-.22,3a127.08,127.08,0,0,0-1.21-12.77,102.58,102.58,0,0,0-4.37-20.06.13.13,0,0,0-.16-.08.13.13,0,0,0-.09.15c.54,3.27,1.38,6.46,1.83,9.75.48,3.47.94,7,1.27,10.44.15,1.61.26,3.22.34,4.84-.56-3.37-1.2-6.72-1.84-10.08-1-5-2.06-10-3.35-15s-2.45-10.21-4-15.2a.07.07,0,0,0-.14,0c.83,5.06,2.14,10,3.11,15.06s2,9.8,2.87,14.72c.94,5.09,1.65,10.22,2.28,15.36.09.72.17,1.45.25,2.17-.41-2-.83-3.91-1.2-5.87-1.27-6.57-2.68-13.12-4-19.69s-2.54-13-4-19.48c-.71-3.19-1.47-6.37-2.38-9.52a49,49,0,0,0-2.89-8.51c0-.11-.22,0-.19.08.8,3.14,1.89,6.17,2.57,9.35s1.23,6.2,1.83,9.3c1.27,6.51,2.55,13,3.79,19.53s2.28,13,3.48,19.41c.35,1.85.67,3.7,1,5.55l-.18-.63c-1.31-4.91-2.53-9.84-3.74-14.78-2.43-9.88-4.52-19.84-7-29.72,0-.17-.28-.1-.25.07,1.71,10,3.77,20,5.91,30,1,4.85,2.17,9.67,3.34,14.48l1.17,4.7c-.17-.52-.35-1-.5-1.53-.71-2.38-1.46-4.76-2.21-7.13-1.46-4.64-2.78-9.31-4.24-14,0-.13-.22-.07-.2.06.83,4.79,1.94,9.54,3.06,14.27.39,1.65.79,3.29,1.23,4.93-.17-.26-.33-.52-.49-.78a9.44,9.44,0,0,0-.53-2.52,6.9,6.9,0,0,0-.48-1.41l-.12-.36c-.44-1.4-.85-2.81-1.25-4.23-.88-3.06-1.64-6.17-2.33-9.28-1.43-6.43-2.48-12.93-3.33-19.46-1.68-12.83-2.85-25.81-3.76-38.71a.13.13,0,0,0-.16-.09.14.14,0,0,0-.09.09c.49,13.31.73,26.56,2.34,39.82.77,6.33,1.79,12.63,3.13,18.87.24,1.07.48,2.15.74,3.22-2.36-4.91-4.79-9.78-7.43-14.54a152.38,152.38,0,0,0-10.71-16.9c-1.92-2.6-4-5.1-6.09-7.54a39.94,39.94,0,0,0-6.49-6.57,2.45,2.45,0,0,0-.08-.37c0-.12-.28-.09-.26.07v.15a.11.11,0,0,0-.05.14l.09.12A256.66,256.66,0,0,0,184.87,68c2.13,6.6,4.53,13,7.13,19.26q1.65,3.92,3.4,7.77l-.09-.11a149.17,149.17,0,0,0-12.9-14.39,146.83,146.83,0,0,0-14.12-12.13c-4.59-3.49-9.61-7.25-14.93-9.59l-.33-.62c-.06-.11-.21,0-.16.1l.18.38-.41-.17c-.13-.06-.18.13-.09.2.26.2.52.4.79.59a190.91,190.91,0,0,0,25,39.75,118.35,118.35,0,0,0-14.69-10.24A111.23,111.23,0,0,0,147.48,81a78.65,78.65,0,0,0-16.74-4.78l-1-.82c-.13-.09-.3.08-.18.18l.66.56h-.34a.26.26,0,0,0-.07.5l1.46.44C138.84,83.52,146.1,90.34,153.5,97q5.91,5.31,11.79,10.63c1.9,1.72,3.82,3.43,5.73,5.14.93.85,1.87,1.84,2.89,2.72q-1.2-.19-2.4-.33a34.63,34.63,0,0,0-8.75.13c-3.49.51-6.7,1.53-10.28,1.38a.1.1,0,0,0,0,.13.12.12,0,0,0,0,0,7.18,7.18,0,0,0,1.81.51,271.64,271.64,0,0,0,38.3,17.9,195.55,195.55,0,0,0,20.63,6.45,92,92,0,0,0,10.67,2c1.74.22,3.48.38,5.23.45q1.5.08,3,.06h.68l.37.2a.56.56,0,0,0,.4.67h0c2.72.54,6.1-.87,8.72-1.58,3.15-.85,6.27-1.83,9.36-2.9A148.26,148.26,0,0,0,269.78,133a153.84,153.84,0,0,0,32.8-22.27q4.31-3.82,8.31-8a70.51,70.51,0,0,0,6.87-7.88c.58-.15,1.16-.32,1.72-.51a.15.15,0,0,0,.11-.18.17.17,0,0,0-.11-.11,11,11,0,0,0-1.15,0h0c.17-.25-.2-.51-.41-.31l-.42.38a59.56,59.56,0,0,0-6.5,1.23c-3,.64-5.91,1.38-8.81,2.27A107.21,107.21,0,0,0,288,103.09c1.71-1.46,3.34-3,4.92-4.5a110.38,110.38,0,0,0,11.64-13,112.57,112.57,0,0,0,9.69-15q2.14-4,4-8.15a46.24,46.24,0,0,0,3.13-8.36.38.38,0,0,0-.09-.32l.17-.12c.13-.09,0-.3-.13-.22M282.69,80.66c-.5,1.94-1,3.88-1.56,5.8a70.93,70.93,0,0,1-3.75,9.88,85,85,0,0,1-10.81,17.22A128.12,128.12,0,0,1,253,127.75c3.07-3.68,6.05-7.43,8.8-11.36A176.72,176.72,0,0,0,277.8,88c.07-.14-.13-.26-.2-.12a195.4,195.4,0,0,1-17,27c-2.47,3.31-5,6.58-7.67,9.73,1.31-1.81,2.61-3.64,3.85-5.51,4.72-7.08,9.35-14.18,13.4-21.68a.1.1,0,0,0-.08-.12.14.14,0,0,0-.09,0c-5,6.88-9.76,13.89-14.94,20.62q-2,2.64-4,5.3l.36-.57c3.27-5,6.21-10.2,9.43-15.21.06-.09-.08-.17-.14-.08-3.45,4.6-7.16,9-10.59,13.63l-1.49,2,.1-.25c.74-1.14,1.49-2.27,2.25-3.4,3.43-5.09,6.91-10.15,10.58-15.08A352.63,352.63,0,0,1,284,76.56a27.57,27.57,0,0,0-1.18,4.08M194.56,70a.34.34,0,0,0-.42-.25.32.32,0,0,0-.18.1c-.1-.3-.19-.6-.29-.91.73.62,1.45,1.25,2.15,1.89.08.17.15.35.23.52a.57.57,0,0,0,.67.31c1.74,1.63,3.39,3.35,5,5.13a5.71,5.71,0,0,0,1.14,1.53.34.34,0,0,0,.22.07,87,87,0,0,1,6.45,8.82.48.48,0,0,0,.15.22c.32.5.63,1,.94,1.51a85.83,85.83,0,0,1,6,11.78c1.6,3.8,2.82,7.73,4.27,11.58.18,1.22.4,2.44.67,3.67-2.48-5.49-4.93-11-7.73-16.35-.06-.1-.24,0-.2.08,2,5.89,4.4,11.65,6.73,17.41,1,2.44,1.95,4.88,3,7.31-2.06-3.78-4.07-7.59-5.94-11.48-4.19-8.71-7.64-17.72-11.67-26.5-.06-.12-.25,0-.22.09,2.64,9.28,6.63,18.39,10.68,27.12q3,6.54,6.34,13c.48.92,1,1.84,1.46,2.76-.78-1.06-1.53-2.13-2.27-3.22a139.61,139.61,0,0,1-9-15.6c-2.82-5.64-5.07-11.57-7.53-17.37C202.58,87,200,80.81,197.29,74.64c-.08-.17-.38,0-.31.13,4.59,12.39,9.08,24.91,14.44,37a97.25,97.25,0,0,0,4.91,9.52h0a111.14,111.14,0,0,1-10.86-19.85c-.08-.17-.36-.1-.29.08a96,96,0,0,0,9.32,20q2.2,3.49,4.7,6.78a68.09,68.09,0,0,1-11-14.07C200.33,100.62,199,84.65,194.56,70m25.24,32.5v.38l-.15-.4a.31.31,0,0,0,.19,0m8.79,36.82-.34-.2h.05l.29.24m-33.82-15,3.29,1.57c-1.37-.56-2.76-1.11-4.16-1.63a4.59,4.59,0,0,0,.51.1.73.73,0,0,0,.36,0M275.7,40.63a114.87,114.87,0,0,1,14.39-23.32c-1.08,3.38-1.53,7.09-2.39,10.5-.92,3.65-2,7.26-3.08,10.87-2.28,7.42-4.86,14.75-7.6,22s-5.66,14.45-8.59,21.63c-1.42,3.47-2.87,6.93-4.31,10.4s-3.28,7-4.22,10.63c-.49.64-1,1.28-1.46,1.93.58-1.12,1.13-2.25,1.63-3.41,3.07-7.21,5.91-14.51,8.59-21.87s5.46-14.92,8-22.45c1.25-3.77,2.47-7.56,3.57-11.37s1.79-8,2.83-12a.15.15,0,0,0-.29-.08h0c-1.08,3.92-2.67,7.77-3.91,11.66-1.17,3.66-2.33,7.33-3.56,11-2.5,7.41-5.16,14.78-8.12,22-2.7,6.59-5.37,13.25-8.31,19.74,2.94-7.82,5.64-15.74,8.41-23.59,4.08-11.54,7.89-23.22,11.45-34.93,0-.13-.16-.18-.21-.06q-6.54,17.24-13,34.5c-2.35,6.32-4.83,12.61-7.25,18.91,5-17.87,9.61-35.95,17.47-52.73M251.39,98.24a64.1,64.1,0,0,0,1.16-7.68A73.63,73.63,0,0,0,254.63,82c.78-3.63,1.52-7.27,2.27-10.91,1.56-7.56,2.66-15.2,4.06-22.78,0-.12-.16-.17-.19,0-1.8,7.47-3.9,14.86-5.55,22.36-.8,3.63-1.6,7.26-2.37,10.89l-.15.68q-.13-2.72-.51-5.49a7.5,7.5,0,0,0-.11-.81,15.72,15.72,0,0,0,1-3.21c.5-1.78,1-3.57,1.47-5.36,1-3.56,1.81-7.2,2.52-10.82a.12.12,0,0,0-.1-.15.12.12,0,0,0-.15.08c-1.34,3.45-2.57,7-3.65,10.51-.54,1.77-1.09,3.53-1.61,5.3l-.48-3.43c2.56-7.78,4.43-15.8,7-23.59,2.54-7.52,5.31-14.91,8.34-22.24-.21,8.06-.05,16.07-.81,24.13-.4,4.27-1,8.54-1.61,12.78a68.24,68.24,0,0,1-2.32,11.51.44.44,0,0,0,.23.58l.05,0c-3,9.69-5.72,19.49-8.66,29.21,1.6-6,3-12.1,4.37-18.15,1.62-7.31,2.95-14.69,4.06-22.09q.81-5.34,1.46-10.71a54,54,0,0,0,.76-11.5c0-.13-.22-.14-.21,0,.2,4-.76,8.11-1.44,12.09q-.89,5.24-1.92,10.46-2.16,11-4.82,21.88c-1.4,5.81-3,11.54-4.68,17.25l.51-2.28m-13,29.49c-.1,1.07-.25,2.13-.43,3.19-.11-8-2.2-16-4.66-23.45,0-.12-.23-.07-.2,0a78.23,78.23,0,0,1,2.78,27.14c-.14-2-.37-3.9-.57-5.79-.32-3.12-.72-6.23-1.24-9.31A144.09,144.09,0,0,0,229,99.64a.14.14,0,0,0-.2,0,.14.14,0,0,0-.08.13,159.15,159.15,0,0,1,3.89,19.46c.51,3.47.94,7,1.22,10.45,0,.53.07,1.06.1,1.6-.76-4.11-1.54-8.22-2.46-12.3-1-4.31-2-8.62-3.17-12.9s-2.16-8.91-3.71-13.15a.12.12,0,0,0-.16-.06.11.11,0,0,0-.07.12c.68,4.36,1.87,8.68,2.74,13s1.73,8.71,2.56,13.07c.44,2.33.9,4.66,1.36,7-.36-1.17-.7-2.33-1.05-3.5-1.83-6-3.67-12.1-5.25-18.21a.16.16,0,0,0-.2-.11.16.16,0,0,0-.11.19c1.43,6.3,2.76,12.61,4.31,18.88q1.11,4.5,2.37,9l.16.58c-.56-1.52-1.12-3-1.66-4.57-1.59-4.54-3-9.15-4.33-13.77a.16.16,0,0,0-.2-.11.16.16,0,0,0-.11.19c1.14,5.08,2.41,10.11,3.7,15.16.52,2,1.08,4,1.7,6-.7-1.63-1.41-3.26-2.08-4.9a100.42,100.42,0,0,1-4.64-13.53,57.81,57.81,0,0,1-1.93-15.15c.28-2.75.67-5.49,1-8.23.06-.22.12-.44.17-.66l.1-.07a4.75,4.75,0,0,0,1.19-2.93A6.71,6.71,0,0,1,226.5,92c.11.31.24.61.38.91a.57.57,0,0,0,.66.32c.52.67,1,1.31,1.35,1.78a43.12,43.12,0,0,1,6.6,11.47,29.46,29.46,0,0,0,.27,3.25.87.87,0,0,0,.94.8.45.45,0,0,0,.16,0q.4,1.41.72,2.85a46.61,46.61,0,0,1,.83,14.38m-7.47-61.33c.1-1.45.19-2.9.29-4.36.2-3,.41-6.06.66-9.09.49-6.09,1.13-12.16,2-18.21a168.75,168.75,0,0,1,7.7-32.43c.57,11.1,1.71,22.15,1.91,33.27.1,5.81,0,11.62-.39,17.42q-.29,4.23-.81,8.45c-.33,2.62-1.35,5.73-.89,8.38a110.67,110.67,0,0,0-3.06,11c-.54,2.44-1,4.9-1.38,7.36,0-.71.05-1.41.1-2.12.25-3.75.67-7.5,1.14-11.22,1-7.82,2.51-15.54,3.8-23.31a.19.19,0,0,0-.36-.1c-1.46,5.48-2.84,11-4,16.62.12-1.39.25-2.78.39-4.16,1.06-10.55,3.68-21,3.57-31.66a.14.14,0,0,0-.27-.07.09.09,0,0,0,0,.07C240.26,43,238,53.69,236.45,64.46q-.39,2.73-.7,5.46c.35-4.9.84-9.8,1.37-14.68,1.53-14.12,3.46-28.26,3.27-42.49a.13.13,0,0,0-.16-.09.14.14,0,0,0-.09.09c-.65,14.38-2.8,28.6-4.56,42.87-.27,2.18-.52,4.37-.75,6.55,0-1,.06-1.91.11-2.87.42-8.44,1.08-16.83,1.73-25.25a.16.16,0,0,0-.32,0,215,215,0,0,0-3,24.9c-.27,4.16-.59,8.32-.68,12.49,0,2-.07,3.94-.09,5.91-.53-2.82-1.08-5.64-1.67-8.46a2.83,2.83,0,0,0-.1-.47c.09-.64.07-1.32.11-2m-10.46-4.94a3.81,3.81,0,0,0,.22-1,19.77,19.77,0,0,0-.31-3.52c-.14-1.46-.21-2.93-.25-4.4-.12-5.64,1.08-10.84,2.18-16.28.77,5.13,2.28,10.21,3.42,15.27q1.77,7.92,3.33,15.9a4.93,4.93,0,0,0,.32,2.49.38.38,0,0,0,.21.22q1.44,7.55,2.71,15.14c.39,2.37.77,4.75,1.13,7.12.11,1.84.3,3.67.55,5.49a.79.79,0,0,0,.21.44c.11.89.25,1.78.43,2.65-.53-.92-1.08-1.84-1.67-2.72l-.36-.5a19.34,19.34,0,0,0-.78-4.4c-.52-2.38-1.09-4.74-1.62-7.12-1-4.62-2-9.27-2.88-13.93s-1.68-9.07-2.45-13.62c-.8-4.77-1-9.75-2.15-14.45a.16.16,0,0,0-.32,0c-.13,4.68.8,9.53,1.32,14.17s1.15,9.31,1.94,13.92,1.67,9.34,2.68,14c.49,2.25,1,4.5,1.56,6.73.13.52.25,1.06.37,1.62-.5-.59-1-1.17-1.54-1.73l-.6-.62c-.06-2.75-1.06-5.62-1.58-8.31-.59-3-1.15-6.07-1.68-9.1s-1.14-6.06-1.56-9.11-.61-6.14-1.12-9.18c0-.13-.22-.09-.22,0a86.67,86.67,0,0,0,.55,9.26c.28,3.2.48,6.4.9,9.58.38,2.88.83,5.75,1.37,8.61.38,2,.65,4.23,1.2,6.29a4.09,4.09,0,0,0-1.81-.69,16.68,16.68,0,0,0,0-2,51.28,51.28,0,0,0-.65-5.79,84,84,0,0,0-1.59-13.59q-.66-3.48-1.46-6.95m-34.12,5.47A339.37,339.37,0,0,1,175.8,29c1.42,1.92,3.16,3.62,4.69,5.44q2.81,3.3,5.33,6.83A156.13,156.13,0,0,1,195,55.73c2.76,4.91,5.32,9.93,7.76,15,1.23,2.55,2.44,5.1,3.63,7.67.15.33.85,2,1.6,3.64a71.43,71.43,0,0,0-5.08-5.64,18.65,18.65,0,0,0-1-2c-.7-1.48-1.38-3-2.08-4.46q-2.16-4.62-4.23-9.29c-.06-.14-.3,0-.25.11,1,3.24,2.19,6.45,3.49,9.6.53,1.3,1.1,2.57,1.68,3.84q-1.62-1.47-3.31-2.82a.53.53,0,0,0,.08-.55c-2.6-6.43-3.85-13.53-7.54-19.46h0c2.86,5.94,3.39,12.61,5.81,18.69-.61-.46-1.22-.92-1.85-1.36a.06.06,0,0,0-.06,0c-1.23-3.76-2.52-7.51-3.74-11.27A44.6,44.6,0,0,0,183.3,44a.1.1,0,1,0-.17.11A80,80,0,0,1,189,58.67c1.5,4.67,2.68,9.73,5.08,14a.41.41,0,0,0,.22.17c.36,2,.76,4,1.18,6l-.62-1.4c-1.1-2.63-2.19-5.27-3.25-7.92-2-5.08-3.88-10.26-6.06-15.28-.06-.13-.26,0-.23.1,1.49,5.49,3.54,10.86,5.54,16.19,1,2.66,2,5.32,3.09,8a43.53,43.53,0,0,0,3,6.94c.67,2.91,1.37,5.8,2.06,8.68.1.45.21.9.32,1.35-1-2.76-1.93-5.53-2.93-8.28a115.71,115.71,0,0,0-6.62-15.66c-.06-.11-.24,0-.19.08,2.11,5.36,4,10.76,5.84,16.24.87,2.66,1.72,5.33,2.59,8,.06.17.11.34.16.51-.21-.41-.42-.83-.61-1.24-1.48-3.23-2.89-6.49-4.26-9.76-2.53-6.07-4.8-12.24-7-18.45M153.74,59.6c2.09,1.48,4.31,2.8,6.42,4.26,2.69,1.85,5.31,3.81,7.88,5.83A149.16,149.16,0,0,1,181.6,81.75a154.52,154.52,0,0,1,12.14,13.81q2.65,3.39,5.13,6.93a13,13,0,0,0,1.35,2c1.07,1.69,2.08,3.52,3.25,5.15l-.25-.28q-2.9-3.49-5.89-6.91c-4.08-4.64-8.09-9.35-12.39-13.78a.12.12,0,0,0-.19.15c3.08,4.31,6.41,8.45,9.71,12.61.57.73,1.16,1.45,1.74,2.18-1-1.06-2.06-2.12-3.08-3.2-3.27-3.42-6.54-6.83-9.72-10.33-3.37-3.7-6.48-7.59-9.74-11.38a.11.11,0,0,0-.17.13c5.25,8,11.78,15.43,18.2,22.48q4.91,5.37,9.9,10.65c1.36,1.43,2.69,2.93,4,4.4-1.42-1.28-2.86-2.56-4.28-3.85a160.8,160.8,0,0,1-13.57-14.18c-4.42-5.1-8.92-10.14-13.22-15.34-4.91-6-9.63-12.08-14.52-18.06-.05-.06-.15,0-.11.09,7.82,11.34,16.43,22.23,25,33a127,127,0,0,0,13.87,15c4.82,4.41,9.88,8.57,14.32,13.37l-4.17-3.4c-4.32-3.52-8.65-7-12.93-10.6-8.26-6.91-14.45-16-21.56-24a.11.11,0,0,0-.18.14c3.22,4.46,6.59,8.82,10,13.17A74.26,74.26,0,0,0,195,113.42c4.36,3.68,8.78,7.27,13.15,10.93,2.11,1.77,4.22,3.54,6.33,5.29.91.75,1.8,1.55,2.71,2.33A200.25,200.25,0,0,1,167,81.22a228.72,228.72,0,0,1-13.21-21.65m18.47,51.87-6-5.36c-4-3.49-7.94-7-11.93-10.49-7.24-6.32-14.69-12.35-22.19-18.34,4.23,1.25,8.47,2.43,12.6,4a116.8,116.8,0,0,1,15,7A121.49,121.49,0,0,1,173.13,97c1.19.88,13.45,10.34,12.67,11.37-.31.39.19.94.62.82a1.73,1.73,0,0,0,.56-.28,182.07,182.07,0,0,0,15.08,14.32c-1.38-.91-2.75-1.84-4.09-2.82-3.85-2.79-7.6-5.75-11.31-8.72-7.17-5.75-14.23-11.66-22-16.58-.13-.08-.24.12-.12.21,7.87,5.65,15,12.28,22.24,18.65,2.13,1.87,4.29,3.68,6.5,5.44-4.72-3-9.34-6.09-13.79-9.46-5.33-4.05-10.44-8.38-15.77-12.42a196.69,196.69,0,0,0-17-11.46c-.05,0-.09,0-.05.08,11.64,7.72,21.85,17,32.62,25.83a133.68,133.68,0,0,0,11.18,8.21c-1.08-.51-2.17-1-3.1-1.47a66.37,66.37,0,0,1-8-5.22c-5.76-4.21-11.45-8.52-17.14-12.81-.08-.06-.19.08-.11.15,5.42,4.64,10.81,9.33,16.21,14q1.45,1.28,3,2.43c-1.45-.44-2.91-.84-4.38-1.18-1.12-1.83-3.18-3.18-4.76-4.58m1.41,14.61c-6.38-2.65-12.68-5.52-18.81-8.71a20.43,20.43,0,0,0,4.93-.56,37.51,37.51,0,0,1,9.92-.58,58.3,58.3,0,0,1,17.15,4.53c1.11.59,2.24,1.15,3.36,1.73.8.41,1.59.89,2.41,1.27a73.74,73.74,0,0,0-15.61-4,.11.11,0,0,0,0,.22,83.28,83.28,0,0,1,12.46,3.89c3.7,1.56,7.29,3.35,10.88,5.13l-.52-.19c-10.18-3.72-20.81-6.22-31.37-8.56a.11.11,0,0,0-.13.09.12.12,0,0,0,.07.12,308.79,308.79,0,0,1,31.16,10.73q6.38,2.58,12.55,5.64l-.14,0c-3.52-1.23-7-2.66-10.46-3.92a177.09,177.09,0,0,0-21.77-6.21.11.11,0,0,0-.13.11.11.11,0,0,0,.07.12,152.67,152.67,0,0,1,22.54,8.14c2.59,1.17,5.17,2.38,7.8,3.46l-.6-.16a284.76,284.76,0,0,1-35.68-12.32M302.84,98.6c2.66-.92,5.35-1.76,8.08-2.47,1.75-.45,3.62-.72,5.43-1.09-1.88,1.85-3.65,3.83-5.51,5.7q-3.51,3.49-7.2,6.8A157,157,0,0,1,287.92,120a150.46,150.46,0,0,1-34.4,17.9q-2.81,1-5.66,1.89l.91-.34q4.33-1.63,8.51-3.61a138.75,138.75,0,0,0,16.7-9.26c10.88-7.13,20.71-15.29,30.63-23.66.14-.12-.06-.3-.19-.2a334.43,334.43,0,0,1-34.24,23.6,148.17,148.17,0,0,1-17.86,9.17c-1.28.55-2.57,1.06-3.86,1.56h0c1.71-1,3.52-1.91,5.31-2.82a162.23,162.23,0,0,0,14.26-8,217.81,217.81,0,0,0,25.68-19.14.11.11,0,0,0-.14-.18,224,224,0,0,1-27.81,18.33c-3,1.66-5.95,3.26-9,4.83,3.36-2.22,6.75-4.39,10.07-6.67q10.83-7.5,21.19-15.6a.15.15,0,0,0-.18-.24c-7.61,5.25-15.37,10.24-23.25,15.06-3,1.83-6.06,3.53-9,5.38.64-.61,1.28-1.22,1.91-1.84a.39.39,0,0,0,.25-.1c2.82-2.31,5.63-4.59,8.47-6.81a11.32,11.32,0,0,0,2.71-2l.51-.44a129.49,129.49,0,0,1,17.33-11.21,116.27,116.27,0,0,1,16-6.94m14.28-36.51c-1.19,2.53-2.46,5-3.81,7.49a118.18,118.18,0,0,1-9.74,14.91A108.06,108.06,0,0,1,292,97.22c-3.71,3.49-7.94,6.39-11.67,9.85l-.52.3c4.35-4.08,8.61-8.3,12.64-12.68A158.58,158.58,0,0,0,304,80.76c3.49-4.81,7.46-10.2,9.35-15.89.06-.16-.16-.23-.25-.11-1.87,2.57-3.36,5.48-5.11,8.14-1.62,2.46-3.31,4.88-5.1,7.21a146.64,146.64,0,0,1-12.35,14c-.62.63-1.24,1.25-1.87,1.86.18-.2.37-.4.55-.61a155.94,155.94,0,0,0,19-26.83c.08-.14-.14-.26-.22-.12-5.59,9.52-13.12,18.07-20.75,26-1.76,1.84-3.55,3.66-5.34,5.47,1.78-2.09,3.52-4.21,5.2-6.39,5.43-7,10.62-14.25,15.81-21.47.08-.11-.11-.26-.2-.15C296.9,79,291,86.17,284.94,93.1c-3,3.41-5.95,6.85-9.06,10.15-.19.22-.4.43-.6.64a77.18,77.18,0,0,0,3.82-7.33c.34-.75.67-1.51,1-2.27a38,38,0,0,0,4.18-4.77q2.28-2.68,4.59-5.34Q293.81,78.51,299,73a142.29,142.29,0,0,1,21.5-18.7c-1.26,2.53-2.18,5.25-3.38,7.81" transform="translate(102.46 52.38)"/><path class="cls-13" d="M25.44,78.49c-.22-.9-1.28-3.66-6.09-3.66-5.46,0-7.2,3.49-7.2,6.84s1.74,6.83,7.2,6.83c3.92,0,5.45-1.81,6.14-4.15H36.92c0,5-6.19,10.36-17.26,10.36C7.43,94.71.5,89,.5,81.67c0-7.85,7.52-13,19.16-13,10.38,0,16.1,3.63,17.11,9.87Z" transform="translate(102.46 52.38)"/><path class="cls-13" d="M52.28,69.21H63.66L77.43,94.12H65.36l-1.59-3.56h-12l-1.69,3.56H38.36Zm9.16,16-3.39-7.68h-.11l-3.65,7.68Z" transform="translate(102.46 52.38)"/><path class="cls-13" d="M89.29,85.75a3.36,3.36,0,0,0,.42,1.64c.85,1.5,3.39,1.81,5.56,1.81,1.91,0,4.82-.42,4.82-2.27,0-1.29-1.64-1.64-8.16-2.86C86,83,79.12,81.88,79.12,76.85c0-5.75,7.47-8.23,15.25-8.23,8.21,0,15.46,2.06,15.78,8.13h-11c.22-.94-.42-1.57-1.37-2a8.61,8.61,0,0,0-3.44-.63c-1.59,0-4.19.28-4.19,1.68.22,1.78,5.62,2.16,11,3.14s10.65,2.61,10.65,7.18c0,6.49-9.06,8.58-17.48,8.58-4.28,0-16.51-1-16.62-9Z" transform="translate(102.46 52.38)"/><path class="cls-13" d="M125.82,69.21H137.2L151,94.12H138.9l-1.59-3.56h-12l-1.69,3.56H111.9Zm9.16,16-3.39-7.68h-.11l-3.65,7.68Z" transform="translate(102.46 52.38)"/><polygon class="cls-13" points="393.32 125.86 383.74 125.86 383.74 119.47 413.45 119.47 413.45 125.86 403.87 125.86 403.87 144.38 393.32 144.38 393.32 125.86"/><polygon class="cls-13" points="417.33 119.47 445.64 119.47 445.64 125.86 427.87 125.86 427.87 128.96 444.01 128.96 444.01 134.88 427.87 134.88 427.87 138 446.17 138 446.17 144.38 417.33 144.38 417.33 119.47"/><path class="cls-13" d="M377.63,94.71,373,91.26a21.12,21.12,0,0,1-8.1,1.33c-10.4,0-17.34-5.45-17.34-13s6.94-13,17.34-13,17.34,5.44,17.34,13a11.43,11.43,0,0,1-4,8.72l4.07,3Zm-9.44-14,2.87,2.12a7.25,7.25,0,0,0,.67-3.31c0-5.55-4.12-6.84-6.8-6.84s-6.8,1.29-6.8,6.84,4.12,6.84,6.8,6.84a7.2,7.2,0,0,0,1.39-.14l-2.87-2.17Z" transform="translate(102.46 52.38)"/><path class="cls-13" d="M417.78,82.36c0,6.91-5.13,10.23-15.57,10.23s-15.62-3.32-15.62-10.23V67.09h10.54V80.66c0,2.54,0,5.72,5.12,5.72s5-3.18,5-5.72V67.09h10.54Z" transform="translate(102.46 52.38)"/><rect class="cls-13" x="525.56" y="119.46" width="10.54" height="24.91"/><polygon class="cls-13" points="541.51 119.47 552.05 119.47 552.05 138 567.19 138 567.19 144.38 541.51 144.38 541.51 119.47"/><path class="cls-13" d="M478.72,67.09H489L501.48,92H490.55l-1.43-3.56H478.24L476.71,92H466.12Zm8.29,16-3.07-7.68h-.09l-3.31,7.68Z" transform="translate(102.46 52.38)"/><polygon class="cls-14" points="217.74 236.81 215.91 236.81 215.91 220.41 208.96 236.81 207.03 236.81 200.12 220.41 200.12 236.81 198.29 236.81 198.29 218.76 201.31 218.76 208.01 234.66 214.69 218.76 217.74 218.76 217.74 236.81"/><polygon class="cls-14" points="242.53 236.81 231.19 236.81 231.19 218.76 242.3 218.76 242.3 220.06 233.15 220.06 233.15 227.04 242.09 227.04 242.09 228.34 233.15 228.34 233.15 235.5 242.53 235.5 242.53 236.81"/><polygon class="cls-14" points="269.9 236.81 267.53 236.81 260.96 228.72 254.39 236.81 252.02 236.81 259.74 227.63 252.29 218.76 254.63 218.76 260.96 226.56 267.3 218.76 269.63 218.76 262.18 227.63 269.9 236.81"/><rect class="cls-14" x="280.54" y="218.75" width="1.97" height="18.05"/><path class="cls-14" d="M208,183.18a11,11,0,0,1-5.93,1.62c-6.33,0-10-4-10-9.39s3.66-9.41,10-9.41a11.26,11.26,0,0,1,5.93,1.62v1.63a9.72,9.72,0,0,0-5.79-1.87c-5.12,0-8.06,3.38-8.06,8s2.94,8,8.06,8a9.57,9.57,0,0,0,5.79-1.86Z" transform="translate(102.46 52.38)"/><path class="cls-14" d="M235.05,184.42h-2l-2.13-4.89h-9.73L219,184.42h-2l8.16-18h1.76Zm-4.71-6.19-4.3-9.8-4.33,9.8Z" transform="translate(102.46 52.38)"/><polygon class="cls-14" points="363.84 236.81 361.36 236.81 349.92 220.96 349.92 236.81 348.05 236.81 348.05 218.76 350.49 218.76 361.94 234.62 361.94 218.76 363.84 218.76 363.84 236.81"/><path class="cls-14" d="M304.56,175.58v7.19a10,10,0,0,1-6.4,2c-6.23,0-10.16-4-10.16-9.39s3.93-9.41,10.36-9.41a11.45,11.45,0,0,1,5.93,1.62v1.63a9.78,9.78,0,0,0-5.79-1.87c-5.29,0-8.44,3.38-8.44,8s3,8,8.1,8a8.36,8.36,0,0,0,4.44-1.19v-6.58Z" transform="translate(102.46 52.38)"/><path class="cls-14" d="M323.67,166.38c4.13,0,6.94,1.89,6.94,4.62,0,2.09-1.62,3.87-4.3,4.41a4,4,0,0,1,3.56,3l1.18,4.06a1.24,1.24,0,0,0,1.22.92,4.64,4.64,0,0,0,1.43-.27v1.24a5.92,5.92,0,0,1-1.87.27,2.46,2.46,0,0,1-2.64-1.62l-1.25-4.27c-.55-1.82-1.77-2.71-4.27-2.71H319.4v8.41h-2v-18Zm.2,1.3H319.4v7.06h4.47c2.81,0,4.84-1.46,4.84-3.55s-2-3.51-4.84-3.51" transform="translate(102.46 52.38)"/><rect class="cls-14" x="446.29" y="218.75" width="1.96" height="18.05"/><polygon class="cls-14" points="473.08 236.81 461.73 236.81 461.73 218.76 463.7 218.76 463.7 235.5 473.08 235.5 473.08 236.81"/><polygon class="cls-14" points="494.93 236.81 483.58 236.81 483.58 218.76 485.55 218.76 485.55 235.5 494.93 235.5 494.93 236.81"/></g></g></g></g></svg>