<svg xmlns="http://www.w3.org/2000/svg" xmlns:xlink="http://www.w3.org/1999/xlink" viewBox="0 0 604.75 509.28"><defs><style>.cls-1,.cls-13{fill:none;}.cls-2{clip-path:url(#clip-path);}.cls-3{fill:url(#linear-gradient);}.cls-4{clip-path:url(#clip-path-2);}.cls-5{fill:url(#linear-gradient-2);}.cls-6{clip-path:url(#clip-path-3);}.cls-7{fill:url(#linear-gradient-3);}.cls-8{clip-path:url(#clip-path-4);}.cls-9{fill:url(#linear-gradient-4);}.cls-10{clip-path:url(#clip-path-5);}.cls-11{fill:url(#linear-gradient-5);}.cls-12{fill:#1a1a1a;}.cls-13{stroke:#fff;stroke-miterlimit:10;}.cls-14{fill:#db200b;}</style><clipPath id="clip-path" transform="translate(102.46 52.38)"><path class="cls-1" d="M317.83,93.66l-.42.38h0a36.24,36.24,0,0,0-4.21.79h0a20.25,20.25,0,0,1,4.51-.08h0c.58-.15,1.16-.32,1.72-.51h0a.15.15,0,0,0,0-.29h0a11.11,11.11,0,0,0-1.15,0h0a.25.25,0,0,0-.24-.38h0a.23.23,0,0,0-.17.07"/></clipPath><linearGradient id="linear-gradient" x1="-152.33" y1="262.05" x2="-151.33" y2="262.05" gradientTransform="matrix(0, 74.16, 74.16, 0, -19118.18, 11322.03)" gradientUnits="userSpaceOnUse"><stop offset="0" stop-color="#fff"/><stop offset="0.87" stop-color="#1f1f1f"/><stop offset="1" stop-color="#1f1f1f"/></linearGradient><clipPath id="clip-path-2" transform="translate(102.46 52.38)"><path class="cls-1" d="M241.46.27c0,.33,0,.65,0,1h0c-4.94,10.5-7.58,22-9.32,33.4h0c-.89,5.83-1.49,11.7-2,17.58h0c-.27,3.14-.5,6.3-.72,9.45h0c0,.12,0,.24,0,.36h0q-1.08-4.86-2.25-9.71h0c-1.38-5.64-2.52-11.58-4.71-17h0c0-.12.05-.24.07-.37h0c.07-.35-.45-.64-.63-.26h0c-1.88,4-2.5,8.69-2.79,13.06h0a49.13,49.13,0,0,0,0,7h0c.05.61.41,2.22.6,3.8h0A176.4,176.4,0,0,0,210.87,32h0a114.13,114.13,0,0,0-9.54-18.48h0a2.31,2.31,0,0,0,0-.46h0c0-.67-.27-1.2-.6-1.2h0a.44.44,0,0,0-.36.25h0c0-.05,0-.11,0-.17h0c0-.15-.25-.16-.25,0h0c0,.34,0,.67,0,1h0s0,.08,0,.12h0c0,.1,0,.2,0,.3h0c.45,12.83.74,25.62,2.29,38.41h0c.77,6.33,1.79,12.63,3.13,18.86h0c.24,1.08.48,2.16.74,3.23h0c-2.36-4.91-4.79-9.78-7.43-14.54h0a152.38,152.38,0,0,0-10.71-16.9h0c-1.92-2.6-4-5.1-6.09-7.54h0a39.56,39.56,0,0,0-6.49-6.57h0c0-.12-.06-.25-.08-.37h0c0-.17-.28-.09-.26.07h0l0,.15h0a.11.11,0,0,0-.05.14h0l.09.12h0a256.07,256.07,0,0,0,9.53,39.63h0C187,74.57,189.4,81,192,87.23h0c1.09,2.61,2.23,5.2,3.4,7.77h0l-.09-.11h0A149.58,149.58,0,0,0,182.41,80.5h0a146.83,146.83,0,0,0-14.12-12.13h0c-4.59-3.49-9.61-7.25-14.93-9.59h0l-.33-.62h0c-.06-.11-.21,0-.16.1h0l.18.38h0l-.42-.17h0c-.12-.06-.17.13-.08.2h0c.26.2.52.4.79.59h0a190.85,190.85,0,0,0,25,39.75h0a119.1,119.1,0,0,0-14.69-10.24h0A111.84,111.84,0,0,0,147.48,81h0a78.65,78.65,0,0,0-16.74-4.78h0l-1-.82h0c-.13-.09-.31.08-.18.18h0l.66.56h0l-.34,0h0c-.3,0-.33.42-.07.5h0l1.46.44h0c7.57,6.46,14.83,13.28,22.23,19.92h0q5.91,5.31,11.79,10.63h0c1.9,1.72,3.82,3.43,5.72,5.14h0c.94.85,1.88,1.84,2.9,2.72h0l28.16,7.75,16.43,12.5.62-7.45s-17-6.91-23.6-58.19h0s19,15.74,21.63,24.1h0l7-4.39L236,104s2.52-31.71,11.87-49.15h0l.33-.76h0c.08-.18-.18-.34-.27-.16h0c-.26.52-.5,1-.75,1.57h0a1.05,1.05,0,0,0-.36.75h0c-1.08,2.34-2.1,4.69-3,7.07h0l.12-1.13h0c.35-2.8.61-5.62.8-8.44h0c.41-6.06.46-12.12.3-18.19h0A308.89,308.89,0,0,0,242.08.82h0c.06-.14.11-.29.16-.44h0c0-.13-.14-.23-.24-.16h0v0h0a.23.23,0,0,0-.25-.2h0a.27.27,0,0,0-.29.27"/></clipPath><linearGradient id="linear-gradient-2" x1="-152.33" y1="262.05" x2="-151.33" y2="262.05" gradientTransform="matrix(0, 123.79, 123.79, 0, -32174.02, 18900.34)" xlink:href="#linear-gradient"/><clipPath id="clip-path-3" transform="translate(102.46 52.38)"><path class="cls-1" d="M173.9,115.43q-1.2-.2-2.4-.33h0c-.74-.08-1.48-.14-2.23-.17h0Z"/></clipPath><linearGradient id="linear-gradient-3" x1="-152.33" y1="262.05" x2="-151.33" y2="262.05" gradientTransform="matrix(0, 74.16, 74.16, 0, -19259.41, 11329.87)" xlink:href="#linear-gradient"/><clipPath id="clip-path-4" transform="translate(102.46 52.38)"><path class="cls-1" d="M290.94,15.65c-.11.12-.22.23-.32.35h0a.15.15,0,0,0-.1.09h0v0h0c-11.46,12.29-18.68,28-24.34,43.62h0c-.21.58-.42,1.16-.62,1.75h0c0-.24.06-.48.1-.71h0q1-6.39,1.44-12.84h0c.6-8.43.93-17.24-.28-25.63h0c.09-.23.18-.46.28-.69h0c.05-.13-.17-.22-.23-.1h0c-.08.16-.15.33-.23.49h0a.12.12,0,0,0-.1.11h0v.09h0C263,29.48,259.76,37,256.92,44.55h0A193.36,193.36,0,0,0,250.39,64h0c-.5-3.24-1.06-6.46-1.73-9.65h0a.32.32,0,0,0-.62.08h0s7.77,30,1.57,55.9h0l8.83-5L284.8,75.58c.1-.1.19-.21.29-.32h0c.13-.14-.08-.35-.21-.21h0c-7.15,7.41-14.11,14.85-20.6,22.8h0c.53-1.29,1-2.59,1.56-3.86h0c1.54-3.69,3-7.4,4.54-11.1h0c2.94-7.18,5.8-14.38,8.46-21.66h0c2.66-7.29,5.1-14.67,7.16-22.15h0c1.07-3.88,2-7.78,2.89-11.7h0c.77-3.51,1.92-7.33,1.93-10.94h0l.41-.5h0a.21.21,0,0,0-.15-.35h0a.2.2,0,0,0-.14.06"/></clipPath><linearGradient id="linear-gradient-4" x1="-152.33" y1="262.05" x2="-151.33" y2="262.05" gradientTransform="matrix(97.39, 0, 0, -97.39, 15047.36, 25582.67)" xlink:href="#linear-gradient"/><clipPath id="clip-path-5" transform="translate(102.46 52.38)"><path class="cls-1" d="M321.36,53.39c-.12.07-.23.15-.35.21h0a.28.28,0,0,0-.21.13h0c-8.31,4.89-15.45,11.09-22.32,17.83h0c-3.59,3.52-7,7.21-10.32,11h0c-1.71,1.94-3.41,3.88-5.09,5.84h0c-.4.47-.85.95-1.3,1.44h0c.32-1,.63-1.93.91-2.9h0c.54-1.93,1-3.89,1.36-5.86h0a21.67,21.67,0,0,0,.76-5.47h0S279,96.47,270.87,112.94h0s16.49-10.11,31.23-15.3h0a106.82,106.82,0,0,0-14,5.47h0c1.71-1.46,3.34-3,4.92-4.5h0a109,109,0,0,0,11.64-13h0a111.9,111.9,0,0,0,9.69-15h0q2.15-4,4-8.15h0a46.8,46.8,0,0,0,3.13-8.36h0a.36.36,0,0,0-.09-.32h0l.17-.12h0a.13.13,0,0,0-.06-.24h0l-.07,0"/></clipPath><linearGradient id="linear-gradient-5" x1="-152.33" y1="262.05" x2="-151.33" y2="262.05" gradientTransform="matrix(0, 74.16, 74.16, 0, -19135.71, 11325.29)" xlink:href="#linear-gradient"/></defs><g id="Layer_2" data-name="Layer 2"><g id="Layer_1-2" data-name="Layer 1"><g class="cls-2"><rect class="cls-3" x="313.18" y="92.88" width="6.42" height="1.44" transform="translate(99.74 62.14) rotate(-1.76)"/></g><g class="cls-4"><rect class="cls-5" x="-33.51" y="16.58" width="371.36" height="371.36" transform="translate(20.26 159.08) rotate(-30.86)"/></g><g class="cls-6"><rect class="cls-7" x="-45.08" y="117.56" width="222.49" height="222.49" transform="translate(95.47 54.52) rotate(-1.76)"/></g><g class="cls-8"><rect class="cls-9" x="217.79" y="25.74" width="104.09" height="75.64" transform="translate(212.42 342.4) rotate(-68.03)"/></g><g class="cls-10"><rect class="cls-11" x="102.59" y="54.57" width="222.49" height="222.49" transform="translate(97.47 59.02) rotate(-1.76)"/></g><path class="cls-12" d="M321.36,53.39c-.12.07-.23.15-.35.21a.3.3,0,0,0-.21.13c-8.31,4.89-15.45,11.09-22.32,17.83-3.59,3.52-7,7.21-10.32,11-1.71,1.94-3.41,3.88-5.09,5.84-.4.48-.85.95-1.3,1.44.32-1,.63-1.93.91-2.9.55-1.93,1-3.89,1.36-5.86a20.8,20.8,0,0,0,.76-5.47h0c.1-.1.19-.21.29-.32s-.08-.35-.21-.21c-7.15,7.41-14.11,14.85-20.6,22.8.53-1.29,1-2.59,1.56-3.86,1.54-3.69,3-7.4,4.54-11.1,2.94-7.18,5.8-14.38,8.46-21.66s5.1-14.67,7.16-22.15c1.07-3.88,2-7.78,2.89-11.7.77-3.51,1.92-7.33,1.93-10.94l.41-.5c.17-.2-.11-.48-.29-.29s-.22.23-.32.35a.13.13,0,0,0-.1.09v0c-11.46,12.29-18.68,28-24.34,43.62-.21.58-.42,1.16-.62,1.75,0-.24.06-.48.1-.71q1-6.39,1.44-12.84c.6-8.43.93-17.25-.28-25.63.09-.23.18-.46.28-.69s-.17-.22-.23-.1-.15.33-.23.49a.12.12,0,0,0-.1.11v.09C263,29.48,259.76,37,256.92,44.54A194.39,194.39,0,0,0,250.39,64c-.5-3.24-1.06-6.46-1.73-9.65a.32.32,0,0,0-.62.09c.28,4.52.85,9,1.43,13.53-.09.43-.17.86-.25,1.29a.84.84,0,0,0,.55,1c.28,2.16.55,4.33.79,6.49a64.61,64.61,0,0,1-1.23,22.13c-1.92,8.3-4.23,16.48-6.67,24.62.11-.39.22-.78.31-1.17,1.64-6.63,3-13.33,4.3-20a105.55,105.55,0,0,0,2.38-19.24c.07-6.42-1.1-13.08-2.15-19.4,0-.16-.27-.11-.27,0-.11,6.47,1.23,12.87.92,19.36a135.65,135.65,0,0,1-3,20.64q-.59,2.8-1.22,5.61.78-5,1.37-10a125.92,125.92,0,0,0,.26-30.18c0-.18-.29-.19-.28,0a169.28,169.28,0,0,1-1.64,30.35c-.31,2.22-.66,4.43-1,6.63.14-1.52.27-3,.4-4.57a235.49,235.49,0,0,0,.67-23.76c0-.16-.22-.15-.24,0q-1,11.69-2.06,23.36-.49,5.73-1.11,11.44c-.05.48-.12,1-.19,1.45l0-.61c-.1-2.74-.15-5.48-.12-8.22.07-5.34.48-10.66.7-16,0-.17-.27-.21-.3,0a90.8,90.8,0,0,0-1.83,16c-.06,1.51-.09,3-.1,4.55-.26-.82-.54-1.64-.85-2.45.13-3.79,0-7.61.28-11.4a143.49,143.49,0,0,1,1.93-14.61c.76-4,1.7-8,2.84-12a9.88,9.88,0,0,0,.67-2.22,111.51,111.51,0,0,1,4.87-12.93c.08-.18-.18-.34-.27-.16-1.51,3.1-2.89,6.22-4.15,9.39l.12-1.13c.35-2.8.61-5.62.8-8.44.41-6.06.46-12.12.3-18.19A308.53,308.53,0,0,0,242.08.83c.06-.15.11-.3.16-.45S242.1.15,242,.22v0c0-.31-.55-.24-.54.07s0,.65,0,1c-4.94,10.5-7.58,22-9.32,33.4-.89,5.83-1.49,11.7-2,17.58-.27,3.15-.5,6.3-.72,9.45,0,.12,0,.24,0,.36q-1.08-4.86-2.25-9.71c-1.38-5.65-2.52-11.58-4.71-17,0-.12.05-.24.07-.37.07-.35-.45-.64-.63-.26-1.88,4-2.5,8.69-2.79,13.06a49.13,49.13,0,0,0,0,7c.05.61.41,2.22.6,3.8A176.4,176.4,0,0,0,210.87,32,111.45,111.45,0,0,0,201,13a.11.11,0,0,0-.18.11c2.74,5.56,5.65,11,8.08,16.73a161.51,161.51,0,0,1,6.29,17.64c1.4,4.81,2.82,9.76,4,14.77h0a.1.1,0,0,0,0,.2h.05c1.75,7.61,2.91,15.38,2.48,23,0,1-.13,2-.22,3a127.51,127.51,0,0,0-1.21-12.77,102.42,102.42,0,0,0-4.37-20.06.13.13,0,0,0-.25.07c.54,3.27,1.38,6.46,1.83,9.75.48,3.47.94,7,1.27,10.44.15,1.61.26,3.22.34,4.84-.56-3.37-1.2-6.72-1.84-10.08-1-5-2.06-10-3.35-15s-2.45-10.21-4-15.2a.07.07,0,0,0-.14,0c.83,5.06,2.14,10,3.11,15.06s2,9.8,2.87,14.72c.94,5.09,1.65,10.22,2.28,15.36.09.72.17,1.45.25,2.17-.41-2-.83-3.91-1.2-5.87-1.27-6.57-2.68-13.12-4-19.69s-2.54-13-4-19.48c-.71-3.19-1.47-6.37-2.38-9.52a48.75,48.75,0,0,0-2.89-8.51c0-.11-.22,0-.19.08.8,3.14,1.89,6.17,2.57,9.35s1.23,6.2,1.83,9.3c1.27,6.51,2.55,13,3.79,19.53s2.28,13,3.48,19.41c.35,1.85.67,3.7,1,5.55l-.18-.63c-1.31-4.91-2.53-9.84-3.74-14.78-2.43-9.88-4.52-19.84-7-29.72,0-.17-.28-.1-.25.07,1.71,10.05,3.77,20,5.91,30,1,4.85,2.17,9.67,3.34,14.48l1.17,4.7c-.17-.52-.35-1-.5-1.53-.71-2.38-1.46-4.76-2.21-7.13-1.46-4.64-2.78-9.31-4.24-14,0-.13-.22-.07-.2.06.83,4.79,1.94,9.54,3.06,14.27.39,1.65.79,3.29,1.23,4.93-.17-.26-.33-.52-.49-.78a9.14,9.14,0,0,0-.53-2.52,6.53,6.53,0,0,0-.48-1.41l-.12-.36c-.44-1.4-.85-2.81-1.25-4.23-.88-3.06-1.64-6.17-2.33-9.28-1.43-6.43-2.48-12.93-3.33-19.46-1.68-12.83-2.85-25.81-3.76-38.71a.13.13,0,0,0-.25,0c.49,13.31.73,26.56,2.34,39.82.77,6.33,1.79,12.63,3.13,18.87.24,1.07.48,2.15.74,3.22-2.36-4.91-4.79-9.78-7.43-14.54a152.38,152.38,0,0,0-10.71-16.9c-1.92-2.6-4-5.1-6.09-7.54a39.56,39.56,0,0,0-6.49-6.57c0-.12-.06-.25-.08-.37s-.28-.09-.26.07l0,.15a.11.11,0,0,0-.05.14l.09.12a256.07,256.07,0,0,0,9.53,39.63C187,74.57,189.4,81,192,87.23q1.65,3.92,3.4,7.77l-.09-.11A149.58,149.58,0,0,0,182.41,80.5a146.83,146.83,0,0,0-14.12-12.13c-4.59-3.49-9.61-7.25-14.93-9.59l-.33-.62c-.06-.11-.21,0-.16.1l.18.38-.41-.17c-.13-.06-.18.13-.09.2.26.2.52.4.79.59a190.85,190.85,0,0,0,25,39.75,119.1,119.1,0,0,0-14.69-10.24A111.84,111.84,0,0,0,147.48,81a78.48,78.48,0,0,0-16.74-4.78l-1-.82c-.13-.09-.3.08-.18.18l.66.56-.34,0c-.3,0-.33.42-.07.5l1.46.44c7.57,6.46,14.83,13.28,22.23,19.92q5.91,5.31,11.79,10.63c1.9,1.72,3.82,3.43,5.73,5.14.93.85,1.87,1.84,2.89,2.72q-1.2-.2-2.4-.33a34.63,34.63,0,0,0-8.75.13c-3.49.51-6.7,1.53-10.28,1.38a.1.1,0,0,0,0,.18,7,7,0,0,0,1.81.51,271.64,271.64,0,0,0,38.3,17.9,196.28,196.28,0,0,0,20.63,6.45,92.32,92.32,0,0,0,10.67,2c1.74.22,3.48.38,5.23.45q1.5.07,3,.06l.68,0,.37.2a.55.55,0,0,0,.42.67c2.72.54,6.1-.87,8.72-1.58,3.15-.85,6.27-1.83,9.36-2.9a147.6,147.6,0,0,0,18.11-7.63,153.84,153.84,0,0,0,32.8-22.27q4.31-3.83,8.31-8a71.55,71.55,0,0,0,6.87-7.88c.58-.15,1.16-.32,1.72-.51a.15.15,0,0,0,0-.29,11.11,11.11,0,0,0-1.15,0h0c.17-.25-.2-.51-.41-.31l-.42.38A61.54,61.54,0,0,0,311,95.33c-3,.64-5.91,1.38-8.81,2.27a107.21,107.21,0,0,0-14.16,5.51c1.71-1.46,3.34-3,4.92-4.5a110.57,110.57,0,0,0,11.64-13,112.64,112.64,0,0,0,9.69-15q2.15-4,4-8.15a46.8,46.8,0,0,0,3.13-8.36.36.36,0,0,0-.09-.32l.17-.12c.13-.09,0-.3-.13-.22M282.69,80.68c-.5,1.94-1,3.88-1.56,5.8a70.93,70.93,0,0,1-3.75,9.88,85,85,0,0,1-10.81,17.22A128.21,128.21,0,0,1,253,127.77c3.07-3.68,6.05-7.43,8.8-11.36a177.1,177.1,0,0,0,16-28.42c.07-.14-.13-.26-.2-.12a196.37,196.37,0,0,1-17,27c-2.47,3.31-5,6.58-7.67,9.73,1.31-1.81,2.61-3.64,3.85-5.51,4.72-7.08,9.35-14.18,13.4-21.68a.1.1,0,0,0-.17-.09c-5,6.88-9.76,13.89-14.94,20.62-1.35,1.76-2.68,3.53-4,5.3l.36-.57c3.27-5,6.21-10.2,9.43-15.21.06-.09-.08-.17-.14-.08-3.45,4.6-7.16,9-10.59,13.63l-1.49,2,.1-.25c.74-1.14,1.49-2.27,2.25-3.4,3.43-5.09,6.91-10.15,10.58-15.08,7.06-9.47,14.4-19,22.38-27.7a27.07,27.07,0,0,0-1.18,4.08M194.56,70a.35.35,0,0,0-.6-.15c-.1-.3-.19-.6-.29-.91.73.62,1.45,1.25,2.15,1.89.08.17.15.35.23.52a.57.57,0,0,0,.67.31c1.74,1.63,3.39,3.35,5,5.13a5.76,5.76,0,0,0,1.14,1.53.34.34,0,0,0,.22.07,87.39,87.39,0,0,1,6.45,8.82.54.54,0,0,0,.15.22c.32.5.63,1,.94,1.51a85.5,85.5,0,0,1,6,11.78c1.6,3.8,2.82,7.73,4.27,11.58.18,1.22.4,2.44.67,3.67-2.48-5.49-4.93-11-7.73-16.35-.06-.1-.24,0-.2.08,2,5.89,4.4,11.65,6.73,17.41,1,2.44,1.95,4.88,3,7.31-2.06-3.78-4.07-7.59-5.94-11.48-4.19-8.71-7.64-17.72-11.67-26.5-.06-.12-.25,0-.22.09,2.64,9.28,6.63,18.39,10.68,27.12,2,4.36,4.11,8.69,6.34,13,.48.92,1,1.84,1.46,2.76-.78-1.06-1.53-2.13-2.27-3.22a139.77,139.77,0,0,1-9-15.6c-2.82-5.64-5.07-11.57-7.53-17.37-2.63-6.19-5.24-12.39-7.92-18.56-.08-.17-.38,0-.31.13,4.59,12.39,9.08,24.91,14.44,37a97.25,97.25,0,0,0,4.91,9.52l0,0a111.14,111.14,0,0,1-10.86-19.85c-.08-.17-.36-.1-.29.08a95.94,95.94,0,0,0,9.32,20q2.21,3.49,4.7,6.78a68.17,68.17,0,0,1-11-14.07C200.33,100.64,199,84.67,194.56,70M219.8,102.5c0,.13,0,.25,0,.38l-.15-.4a.41.41,0,0,0,.19,0m8.79,36.82-.34-.2a.1.1,0,0,1,.05,0l.29.24m-33.82-15,3.29,1.57c-1.37-.56-2.76-1.11-4.16-1.63a4.59,4.59,0,0,0,.51.1.73.73,0,0,0,.36,0M275.7,40.65a114.6,114.6,0,0,1,14.39-23.32c-1.08,3.38-1.53,7.09-2.39,10.5-.92,3.65-2,7.26-3.08,10.87-2.28,7.42-4.86,14.75-7.6,22s-5.66,14.45-8.59,21.63c-1.42,3.47-2.87,6.93-4.31,10.4s-3.28,7-4.22,10.63c-.49.64-1,1.28-1.46,1.93.58-1.12,1.13-2.25,1.63-3.41,3.07-7.21,5.91-14.51,8.59-21.87s5.46-14.92,8-22.45c1.25-3.77,2.47-7.56,3.57-11.37s1.79-8,2.83-12a.15.15,0,0,0-.29-.08c-1.08,3.92-2.67,7.77-3.91,11.66-1.17,3.66-2.33,7.33-3.56,11-2.5,7.41-5.16,14.78-8.12,22-2.7,6.59-5.37,13.25-8.31,19.74,2.94-7.82,5.64-15.74,8.41-23.59,4.08-11.54,7.89-23.22,11.45-34.93,0-.13-.16-.18-.21-.06q-6.54,17.24-13,34.5c-2.35,6.32-4.83,12.61-7.25,18.91,5-17.87,9.61-35.95,17.47-52.73M251.39,98.26a64.52,64.52,0,0,0,1.16-7.68,73.68,73.68,0,0,0,2.08-8.53c.78-3.63,1.52-7.27,2.27-10.91,1.56-7.56,2.66-15.2,4.06-22.78,0-.12-.16-.17-.19,0-1.8,7.47-3.9,14.86-5.55,22.36-.8,3.63-1.6,7.26-2.37,10.89l-.15.68q-.13-2.71-.51-5.49c0-.27-.08-.54-.11-.81a15.44,15.44,0,0,0,1-3.21c.5-1.78,1-3.57,1.47-5.36,1-3.56,1.81-7.2,2.52-10.82a.13.13,0,0,0-.25-.07c-1.34,3.45-2.57,7-3.65,10.51-.54,1.77-1.09,3.53-1.61,5.3l-.48-3.43c2.56-7.78,4.43-15.8,7.05-23.59,2.54-7.52,5.31-14.91,8.34-22.24-.21,8.06-.05,16.07-.81,24.13-.4,4.27-.95,8.54-1.61,12.78a68,68,0,0,1-2.32,11.51.44.44,0,0,0,.28.6c-3,9.69-5.72,19.49-8.66,29.21,1.6-6,3-12.1,4.37-18.15,1.62-7.31,2.95-14.69,4.06-22.09q.81-5.34,1.46-10.71A54.27,54.27,0,0,0,264,38.86c0-.13-.22-.14-.21,0,.2,4-.76,8.11-1.44,12.09q-.89,5.23-1.92,10.46-2.16,11-4.82,21.88c-1.4,5.81-3,11.54-4.68,17.25l.51-2.28m-13,29.49c-.1,1.07-.25,2.13-.43,3.19-.11-8-2.2-16-4.66-23.45,0-.12-.23-.07-.2.05a78.33,78.33,0,0,1,2.78,27.14c-.14-2-.37-3.9-.57-5.79-.32-3.12-.72-6.23-1.24-9.31A143.69,143.69,0,0,0,229,99.66a.15.15,0,0,0-.28.08,158.77,158.77,0,0,1,3.89,19.46c.51,3.47.94,7,1.22,10.45,0,.53.07,1.06.1,1.6-.76-4.11-1.54-8.22-2.46-12.3-1-4.31-2-8.62-3.17-12.9s-2.16-8.91-3.71-13.15a.12.12,0,0,0-.23.06c.68,4.36,1.87,8.68,2.74,13s1.73,8.71,2.56,13.07c.44,2.33.9,4.66,1.36,7-.36-1.17-.7-2.33-1.05-3.5-1.83-6-3.67-12.1-5.25-18.21a.16.16,0,0,0-.31.08c1.43,6.3,2.76,12.61,4.31,18.88.74,3,1.53,6,2.37,9l.16.58c-.56-1.52-1.12-3-1.66-4.57-1.59-4.54-3-9.15-4.33-13.77a.16.16,0,0,0-.31.08c1.14,5.08,2.41,10.11,3.7,15.16.52,2,1.08,4,1.7,6-.7-1.63-1.41-3.26-2.08-4.9a100.9,100.9,0,0,1-4.64-13.53,58,58,0,0,1-1.93-15.15c.28-2.75.67-5.49,1-8.23.06-.22.12-.44.17-.66l.1-.07a4.79,4.79,0,0,0,1.19-2.93A6.71,6.71,0,0,1,226.5,92a9.17,9.17,0,0,0,.38.91.57.57,0,0,0,.66.32c.52.67,1,1.31,1.35,1.78a43.21,43.21,0,0,1,6.6,11.47,31.41,31.41,0,0,0,.27,3.25.87.87,0,0,0,1.1.77q.4,1.41.72,2.85a46.63,46.63,0,0,1,.83,14.38M230.94,66.4c.1-1.45.19-2.9.29-4.36.2-3,.41-6.06.66-9.09.49-6.09,1.13-12.16,2-18.21a169.32,169.32,0,0,1,7.7-32.43c.57,11.1,1.71,22.15,1.91,33.27.1,5.81,0,11.62-.39,17.42q-.29,4.23-.81,8.45c-.33,2.62-1.35,5.73-.89,8.38a112.73,112.73,0,0,0-3.06,11c-.54,2.44-1,4.9-1.38,7.36,0-.71.05-1.41.1-2.12.25-3.75.67-7.5,1.14-11.22,1-7.82,2.51-15.54,3.8-23.31a.19.19,0,0,0-.36-.1c-1.46,5.48-2.84,11-4,16.62.12-1.39.25-2.78.39-4.16,1.06-10.55,3.68-21,3.57-31.66a.14.14,0,1,0-.27,0c-1.08,10.82-3.38,21.47-4.89,32.24q-.39,2.73-.7,5.46c.35-4.9.84-9.8,1.37-14.68,1.53-14.12,3.46-28.26,3.27-42.49a.13.13,0,0,0-.25,0c-.65,14.38-2.8,28.6-4.56,42.87-.27,2.18-.52,4.37-.75,6.55,0-1,.06-1.91.11-2.87.42-8.44,1.08-16.83,1.73-25.25,0-.18-.29-.22-.32,0a214.62,214.62,0,0,0-3,24.9c-.27,4.16-.59,8.32-.68,12.49-.05,2-.07,3.94-.09,5.91q-.79-4.23-1.67-8.46c0-.15-.07-.31-.1-.47.09-.64.07-1.32.11-2m-10.46-4.94a3.92,3.92,0,0,0,.22-1,19.85,19.85,0,0,0-.31-3.52c-.14-1.46-.21-2.93-.25-4.4-.12-5.64,1.08-10.84,2.18-16.28.77,5.13,2.28,10.21,3.42,15.27q1.77,7.92,3.33,15.9a5,5,0,0,0,.32,2.49.41.41,0,0,0,.21.22q1.44,7.55,2.71,15.14c.39,2.37.77,4.75,1.13,7.12q.17,2.76.55,5.49a.83.83,0,0,0,.21.44c.11.89.25,1.78.43,2.65-.53-.92-1.08-1.84-1.67-2.72l-.36-.5a19.34,19.34,0,0,0-.78-4.4c-.52-2.38-1.09-4.74-1.62-7.12-1-4.62-2-9.27-2.88-13.93s-1.68-9.07-2.45-13.62c-.8-4.77-1-9.75-2.15-14.45a.16.16,0,0,0-.32,0c-.13,4.68.8,9.53,1.32,14.17s1.15,9.31,1.94,13.92,1.67,9.34,2.68,14c.49,2.25,1,4.5,1.56,6.73.13.52.25,1.06.37,1.62-.5-.59-1-1.17-1.54-1.73l-.6-.62c-.06-2.75-1.06-5.62-1.58-8.31q-.88-4.55-1.68-9.1c-.53-3-1.14-6.06-1.56-9.11s-.61-6.14-1.12-9.18c0-.13-.22-.09-.22,0a87,87,0,0,0,.55,9.26c.28,3.2.48,6.4.9,9.58.38,2.88.83,5.75,1.37,8.61.38,2,.65,4.23,1.2,6.29a4.09,4.09,0,0,0-1.81-.69,18.29,18.29,0,0,0,0-2,51,51,0,0,0-.65-5.79,84.12,84.12,0,0,0-1.59-13.59q-.66-3.48-1.46-6.95m-34.12,5.47A340,340,0,0,1,175.8,29.06c1.42,1.92,3.16,3.62,4.69,5.44q2.81,3.3,5.33,6.83A155.64,155.64,0,0,1,195,55.75c2.76,4.91,5.32,9.93,7.76,15q1.84,3.82,3.63,7.67c.15.33.85,2,1.6,3.64a69.7,69.7,0,0,0-5.08-5.64c-.28-.7-.65-1.36-1-2-.7-1.48-1.38-3-2.08-4.46q-2.16-4.62-4.23-9.29c-.06-.14-.3,0-.25.11,1,3.24,2.19,6.45,3.49,9.6.53,1.3,1.1,2.57,1.68,3.84q-1.62-1.47-3.31-2.82a.52.52,0,0,0,.08-.55c-2.6-6.43-3.85-13.53-7.54-19.46,0,0,0,0,0,0,2.86,5.94,3.39,12.61,5.81,18.69-.61-.46-1.22-.92-1.85-1.36a.06.06,0,0,0-.06,0c-1.23-3.76-2.52-7.51-3.74-11.27A44.54,44.54,0,0,0,183.3,44a.1.1,0,0,0-.17.11A79.73,79.73,0,0,1,189,58.69c1.5,4.67,2.68,9.73,5.08,14a.39.39,0,0,0,.22.17c.36,2,.76,4,1.18,6l-.62-1.4c-1.1-2.63-2.19-5.27-3.25-7.92-2-5.08-3.88-10.26-6.06-15.28-.06-.13-.26,0-.23.1,1.49,5.49,3.54,10.86,5.54,16.19,1,2.66,2,5.32,3.09,8a44.45,44.45,0,0,0,3,6.94c.67,2.91,1.37,5.8,2.06,8.68.1.45.21.9.32,1.35-1-2.76-1.93-5.53-2.93-8.28a115.17,115.17,0,0,0-6.62-15.66c-.06-.11-.24,0-.19.08,2.11,5.36,4,10.76,5.84,16.24.87,2.66,1.72,5.33,2.59,8,.06.17.11.34.16.51-.21-.41-.42-.83-.61-1.24-1.48-3.23-2.89-6.49-4.26-9.76-2.53-6.07-4.8-12.24-7-18.45m-32.57-7.34c2.09,1.48,4.31,2.8,6.42,4.26,2.69,1.85,5.31,3.81,7.88,5.83A147.39,147.39,0,0,1,181.6,81.77a154.71,154.71,0,0,1,12.14,13.81q2.65,3.39,5.13,6.93a13.36,13.36,0,0,0,1.35,2c1.07,1.69,2.08,3.52,3.25,5.15l-.25-.28q-2.9-3.5-5.89-6.91c-4.08-4.64-8.09-9.35-12.39-13.78-.09-.09-.27,0-.19.15,3.08,4.31,6.41,8.45,9.71,12.61.57.73,1.16,1.45,1.74,2.18-1-1.06-2.06-2.12-3.08-3.2-3.27-3.42-6.54-6.83-9.72-10.33-3.37-3.7-6.48-7.59-9.74-11.38-.08-.09-.24,0-.17.13,5.25,8,11.78,15.43,18.2,22.48q4.91,5.37,9.9,10.65c1.36,1.43,2.69,2.93,4,4.4-1.42-1.28-2.86-2.56-4.28-3.85a162.26,162.26,0,0,1-13.57-14.18c-4.42-5.1-8.92-10.14-13.22-15.34-4.91-6-9.63-12.08-14.52-18.06-.05-.06-.15,0-.11.09,7.82,11.34,16.43,22.23,25,33a127.5,127.5,0,0,0,13.87,15c4.82,4.41,9.88,8.57,14.32,13.37l-4.17-3.4c-4.32-3.52-8.65-7-12.93-10.6-8.26-6.91-14.45-16-21.56-24-.08-.09-.25,0-.18.14,3.22,4.46,6.59,8.82,10,13.17A74.22,74.22,0,0,0,195,113.44c4.36,3.68,8.78,7.27,13.15,10.93,2.11,1.77,4.22,3.54,6.33,5.29.91.75,1.8,1.55,2.71,2.33A200.22,200.22,0,0,1,167,81.24a230,230,0,0,1-13.21-21.65m18.47,51.87-6-5.36c-4-3.49-7.94-7-11.93-10.49-7.24-6.32-14.69-12.35-22.19-18.34,4.23,1.25,8.47,2.43,12.6,4a116.49,116.49,0,0,1,15,7A121.38,121.38,0,0,1,173.13,97c1.19.88,13.45,10.34,12.67,11.37-.31.39.19.94.62.82a1.63,1.63,0,0,0,.56-.28,183.83,183.83,0,0,0,15.08,14.32c-1.38-.91-2.75-1.84-4.09-2.82-3.85-2.79-7.6-5.75-11.31-8.72-7.17-5.75-14.23-11.66-22-16.58-.13-.08-.24.12-.12.21,7.87,5.65,15,12.28,22.24,18.65,2.13,1.87,4.29,3.68,6.5,5.44-4.72-3-9.34-6.09-13.79-9.46-5.33-4.05-10.44-8.38-15.77-12.42a196.22,196.22,0,0,0-17-11.46c-.05,0-.09,0-.05.08,11.64,7.72,21.85,17,32.62,25.83a136,136,0,0,0,11.18,8.21c-1.08-.51-2.17-1-3.1-1.47a66.37,66.37,0,0,1-7.95-5.22c-5.76-4.21-11.45-8.52-17.14-12.81-.08-.06-.19.08-.11.15,5.42,4.64,10.81,9.33,16.21,14q1.46,1.27,3,2.43c-1.45-.44-2.91-.84-4.38-1.18-1.12-1.83-3.18-3.18-4.76-4.58m1.41,14.61c-6.38-2.65-12.68-5.52-18.81-8.71a20.55,20.55,0,0,0,4.93-.56,37.53,37.53,0,0,1,9.92-.58,58.16,58.16,0,0,1,17.15,4.53c1.11.59,2.24,1.15,3.36,1.73.8.41,1.59.89,2.41,1.27A73.47,73.47,0,0,0,177,119.83c-.12,0-.15.19,0,.22a82.13,82.13,0,0,1,12.46,3.89c3.7,1.56,7.29,3.35,10.88,5.13l-.52-.19c-10.18-3.72-20.81-6.22-31.37-8.56a.11.11,0,0,0-.06.21,308.79,308.79,0,0,1,31.16,10.73q6.38,2.58,12.55,5.64l-.14-.05c-3.52-1.23-7-2.66-10.46-3.92a177.09,177.09,0,0,0-21.77-6.21.12.12,0,0,0-.06.23,151.53,151.53,0,0,1,22.54,8.14c2.59,1.17,5.17,2.38,7.8,3.46l-.6-.16a284.21,284.21,0,0,1-35.68-12.32M302.84,98.62c2.66-.92,5.35-1.76,8.08-2.47,1.75-.45,3.62-.72,5.43-1.09-1.88,1.85-3.65,3.83-5.51,5.7q-3.51,3.49-7.2,6.8A156.77,156.77,0,0,1,287.92,120a150.46,150.46,0,0,1-34.4,17.9q-2.81,1-5.66,1.89l.91-.34q4.33-1.63,8.51-3.61a138,138,0,0,0,16.7-9.26c10.88-7.13,20.71-15.29,30.63-23.66.14-.12-.06-.3-.19-.2a335.53,335.53,0,0,1-34.24,23.6,147.43,147.43,0,0,1-17.86,9.17c-1.28.55-2.57,1.06-3.86,1.56v0c1.71-1,3.52-1.91,5.31-2.82,4.85-2.46,9.66-5.05,14.26-8a218.64,218.64,0,0,0,25.68-19.14c.1-.09,0-.26-.14-.18a225.15,225.15,0,0,1-27.81,18.33c-3,1.66-5.95,3.26-9,4.83,3.36-2.22,6.75-4.39,10.07-6.67,7.22-5,14.29-10.2,21.19-15.6.13-.11,0-.33-.18-.24-7.61,5.25-15.37,10.24-23.25,15.06-3,1.83-6.06,3.53-9,5.38.64-.61,1.28-1.22,1.91-1.84a.38.38,0,0,0,.25-.1c2.82-2.31,5.63-4.59,8.47-6.81a11.53,11.53,0,0,0,2.71-2l.51-.44a129.66,129.66,0,0,1,17.33-11.21,115.16,115.16,0,0,1,16-6.94m14.28-36.51c-1.19,2.53-2.46,5-3.81,7.49a118.18,118.18,0,0,1-9.74,14.91A108.69,108.69,0,0,1,292,97.24c-3.71,3.49-7.94,6.39-11.67,9.85l-.52.3c4.35-4.08,8.61-8.3,12.64-12.68A157.69,157.69,0,0,0,304,80.78c3.49-4.81,7.46-10.2,9.35-15.89.06-.16-.16-.23-.25-.11-1.87,2.57-3.36,5.48-5.11,8.14-1.62,2.46-3.31,4.88-5.1,7.21a146.71,146.71,0,0,1-12.35,14c-.62.63-1.24,1.25-1.87,1.86.18-.2.37-.4.55-.61a155.56,155.56,0,0,0,19-26.83c.08-.14-.14-.26-.22-.12-5.59,9.52-13.12,18.07-20.75,26-1.76,1.84-3.55,3.66-5.34,5.47,1.78-2.09,3.52-4.21,5.2-6.39,5.43-7,10.62-14.25,15.81-21.47.08-.11-.11-.26-.2-.15-5.82,7.15-11.69,14.3-17.78,21.23-3,3.41-5.95,6.85-9.06,10.15-.19.22-.4.43-.6.64a78.41,78.41,0,0,0,3.82-7.33c.34-.75.67-1.51,1-2.27a37.78,37.78,0,0,0,4.18-4.77q2.28-2.68,4.59-5.34Q293.8,78.53,299,73A142.29,142.29,0,0,1,320.5,54.3c-1.26,2.53-2.18,5.25-3.38,7.81" transform="translate(102.46 52.38)"/><path class="cls-12" d="M207.59,84.52a0,0,0,1,0,0,0s0,0,0,0" transform="translate(102.46 52.38)"/><path class="cls-13" d="M25.44,78.51c-.22-.9-1.28-3.66-6.09-3.66-5.46,0-7.2,3.49-7.2,6.84s1.74,6.83,7.2,6.83c3.92,0,5.45-1.81,6.14-4.15H36.92c0,5-6.19,10.36-17.26,10.36C7.43,94.73.5,89.05.5,81.69c0-7.85,7.52-13,19.16-13,10.38,0,16.1,3.63,17.11,9.87Z" transform="translate(102.46 52.38)"/><path class="cls-13" d="M52.28,69.23H63.66L77.43,94.14H65.36l-1.59-3.56h-12l-1.69,3.56H38.36Zm9.16,16-3.39-7.68h-.11l-3.65,7.68Z" transform="translate(102.46 52.38)"/><path class="cls-13" d="M89.29,85.77a3.3,3.3,0,0,0,.42,1.64c.85,1.5,3.39,1.81,5.56,1.81,1.91,0,4.82-.42,4.82-2.27,0-1.29-1.64-1.64-8.16-2.86C86,83,79.12,81.9,79.12,76.87c0-5.75,7.47-8.23,15.25-8.23,8.21,0,15.46,2.06,15.78,8.13h-11c.22-.94-.42-1.57-1.37-2a8.57,8.57,0,0,0-3.44-.63c-1.59,0-4.19.28-4.19,1.68.22,1.78,5.62,2.16,11,3.14s10.65,2.61,10.65,7.18c0,6.49-9.06,8.58-17.48,8.58-4.28,0-16.51-1-16.62-9Z" transform="translate(102.46 52.38)"/><path class="cls-13" d="M125.82,69.23H137.2L151,94.14H138.9l-1.59-3.56h-12l-1.69,3.56H111.9Zm9.16,16-3.39-7.68h-.11l-3.65,7.68Z" transform="translate(102.46 52.38)"/><polygon class="cls-13" points="393.32 125.87 383.74 125.87 383.74 119.48 413.45 119.48 413.45 125.87 403.87 125.87 403.87 144.39 393.32 144.39 393.32 125.87"/><polygon class="cls-13" points="417.33 119.48 445.64 119.48 445.64 125.87 427.87 125.87 427.87 128.97 444.01 128.97 444.01 134.9 427.87 134.9 427.87 138.01 446.17 138.01 446.17 144.39 417.33 144.39 417.33 119.48"/><path class="cls-13" d="M377.63,94.73,373,91.28a21.2,21.2,0,0,1-8.1,1.33c-10.4,0-17.34-5.45-17.34-13s6.94-13,17.34-13,17.34,5.44,17.34,13a11.45,11.45,0,0,1-4,8.72l4.07,3Zm-9.44-14,2.87,2.12a7.24,7.24,0,0,0,.67-3.31c0-5.55-4.12-6.84-6.8-6.84s-6.8,1.29-6.8,6.84,4.12,6.84,6.8,6.84a7.26,7.26,0,0,0,1.39-.14l-2.87-2.17Z" transform="translate(102.46 52.38)"/><path class="cls-13" d="M417.78,82.38c0,6.91-5.13,10.23-15.57,10.23s-15.62-3.32-15.62-10.23V67.11h10.54V80.68c0,2.54,0,5.72,5.12,5.72s5-3.18,5-5.72V67.11h10.54Z" transform="translate(102.46 52.38)"/><rect class="cls-13" x="525.56" y="119.48" width="10.54" height="24.91"/><polygon class="cls-13" points="541.51 119.48 552.05 119.48 552.05 138.01 567.19 138.01 567.19 144.39 541.51 144.39 541.51 119.48"/><path class="cls-13" d="M478.72,67.11H489L501.48,92H490.55l-1.43-3.56H478.24L476.71,92H466.12Zm8.29,16-3.07-7.68h-.09l-3.31,7.68Z" transform="translate(102.46 52.38)"/><polygon class="cls-14" points="217.74 236.82 215.91 236.82 215.91 220.43 208.96 236.82 207.03 236.82 200.12 220.43 200.12 236.82 198.29 236.82 198.29 218.78 201.31 218.78 208.01 234.68 214.69 218.78 217.74 218.78 217.74 236.82"/><polygon class="cls-14" points="242.53 236.82 231.19 236.82 231.19 218.78 242.3 218.78 242.3 220.07 233.15 220.07 233.15 227.06 242.09 227.06 242.09 228.35 233.15 228.35 233.15 235.52 242.53 235.52 242.53 236.82"/><polygon class="cls-14" points="269.9 236.82 267.53 236.82 260.96 228.73 254.39 236.82 252.02 236.82 259.74 227.65 252.29 218.78 254.63 218.78 260.96 226.57 267.3 218.78 269.63 218.78 262.18 227.65 269.9 236.82"/><rect class="cls-14" x="280.54" y="218.77" width="1.97" height="18.05"/><path class="cls-14" d="M208,183.2a11,11,0,0,1-5.93,1.62c-6.33,0-10-4-10-9.39s3.66-9.41,10-9.41a11.27,11.27,0,0,1,5.93,1.62v1.63a9.72,9.72,0,0,0-5.79-1.87c-5.12,0-8.06,3.38-8.06,8s2.94,8,8.06,8a9.58,9.58,0,0,0,5.79-1.86Z" transform="translate(102.46 52.38)"/><path class="cls-14" d="M235.05,184.44h-2l-2.13-4.89h-9.73L219,184.44h-2l8.16-18h1.76Zm-4.71-6.19-4.3-9.8-4.33,9.8Z" transform="translate(102.46 52.38)"/><polygon class="cls-14" points="363.84 236.82 361.36 236.82 349.92 220.97 349.92 236.82 348.05 236.82 348.05 218.78 350.49 218.78 361.94 234.63 361.94 218.78 363.84 218.78 363.84 236.82"/><path class="cls-14" d="M304.56,175.6v7.19a10.06,10.06,0,0,1-6.4,2c-6.23,0-10.16-4-10.16-9.39s3.93-9.41,10.36-9.41a11.49,11.49,0,0,1,5.93,1.62v1.63a9.81,9.81,0,0,0-5.79-1.87c-5.29,0-8.44,3.38-8.44,8s3,8,8.1,8a8.38,8.38,0,0,0,4.44-1.19V175.6Z" transform="translate(102.46 52.38)"/><path class="cls-14" d="M323.67,166.4c4.13,0,6.94,1.89,6.94,4.62,0,2.09-1.62,3.87-4.3,4.41a4,4,0,0,1,3.56,3l1.18,4.06a1.25,1.25,0,0,0,1.22.92,4.73,4.73,0,0,0,1.43-.27v1.24a5.79,5.79,0,0,1-1.87.27,2.46,2.46,0,0,1-2.64-1.62l-1.25-4.27c-.55-1.82-1.77-2.71-4.27-2.71H319.4v8.41h-2v-18Zm.2,1.3H319.4v7.06h4.47c2.81,0,4.84-1.46,4.84-3.55s-2-3.51-4.84-3.51" transform="translate(102.46 52.38)"/><rect class="cls-14" x="446.29" y="218.77" width="1.96" height="18.05"/><polygon class="cls-14" points="473.08 236.82 461.73 236.82 461.73 218.78 463.7 218.78 463.7 235.52 473.08 235.52 473.08 236.82"/><polygon class="cls-14" points="494.93 236.82 483.58 236.82 483.58 218.78 485.55 218.78 485.55 235.52 494.93 235.52 494.93 236.82"/></g></g></svg>